<svg xmlns="http://www.w3.org/2000/svg" xmlns:svg="http://www.w3.org/2000/svg" id="svg1519" width="100" height="100" fill="currentColor" version="1.1" viewBox="0 0 100 100"><!--! Font Awesome Free 5.15.2 by @fontawesome - https://fontawesome.com License - https://fontawesome.com/license/free (Icons: CC BY 4.0, Fonts: SIL OFL 1.1, Code: MIT License)--><metadata id="metadata1525"/><path id="path1517" fill="currentColor" d="M 89.285714,0 H 10.714286 C 4.796875,0 0,4.796875 0,10.714286 V 89.28571 C 0,95.20313 4.796875,100 10.714286,100 H 89.285714 C 95.203125,100 100,95.20313 100,89.28571 V 10.714286 C 100,4.796875 95.203125,0 89.285714,0 Z m 0,89.28571 H 10.714286 V 10.714286 H 89.285714 Z M 81.280357,35.329464 42.756027,73.54464 c -1.050223,1.04174 -2.746206,1.03505 -3.787947,-0.0152 L 18.704464,53.101786 c -1.041741,-1.050223 -1.035044,-2.746206 0.0154,-3.78817 l 5.071205,-5.030357 c 1.050224,-1.041741 2.746206,-1.035045 3.787947,0.0154 l 13.34643,13.454689 31.551786,-31.298214 c 1.050223,-1.041741 2.746206,-1.035045 3.787947,0.01518 l 5.030357,5.070982 c 1.041741,1.050446 1.035044,2.746428 -0.01518,3.788169 z" style="stroke-width:.223214"/></svg>