<svg xmlns="http://www.w3.org/2000/svg" xmlns:xlink="http://www.w3.org/1999/xlink" width="33" height="33" version="1.1" viewBox="0 0 33 33"><path fill="#FFF" d="M16.5,33 C25.6126984,33 33,25.6126984 33,16.5 C33,7.38730163 25.6126984,0 16.5,0 C7.38730163,0 0,7.38730163 0,16.5 C0,25.6126984 7.38730163,33 16.5,33 Z"/><g fill="#B13B89" transform="translate(8.000000, 8.000000)"><circle cx="3" cy="8" r="1"/><circle cx="14" cy="8" r="1"/><circle cx="5" cy="5" r="1"/><circle cx="8.5" cy="3" r="1"/><circle cx="12" cy="5" r="1"/><path d="M8,7 C8,6 9,6 9,7 L9,15 L8,15 L8,7 Z"/><path d="M8.5,17 C10,17 11,16 11,14.5 C11,13 10,12 8.5,12 C7,12 6,13 6,14.5 C6,16 7,17 8.5,17 Z"/><circle cx="8.5" cy="8.5" r="8.5" fill="none" stroke="#B13B89"/></g></svg>