<svg xmlns="http://www.w3.org/2000/svg" xmlns:svg="http://www.w3.org/2000/svg" id="svg2146" width="100" height="100" fill="currentColor" version="1.1" viewBox="0 0 100 100"><!--! Font Awesome Free 5.15.2 by @fontawesome - https://fontawesome.com License - https://fontawesome.com/license/free (Icons: CC BY 4.0, Fonts: SIL OFL 1.1, Code: MIT License)--><metadata id="metadata2152"/><path id="path2144" fill="currentColor" d="m 40,62.5 h -0.0031 c 0,-2.528125 0.209375,-1.364063 -13.289062,-28.360937 -2.757813,-5.514063 -10.654688,-5.525 -13.417188,0 C -0.321875,61.367187 0.003125,60.051562 0.003125,62.5 H 0 C 0,69.403125 8.9546875,75 20,75 31.045313,75 40,69.403125 40,62.5 Z M 20,37.5 31.25,60 H 8.75 Z m 79.996875,25 c 0,-2.528125 0.209375,-1.364063 -13.289062,-28.360937 -2.757813,-5.514063 -10.654688,-5.525 -13.417188,0 C 59.678125,61.367187 60.003125,60.051562 60.003125,62.5 H 60 c 0,6.903125 8.954688,12.5 20,12.5 11.045313,0 20,-5.596875 20,-12.5 z M 68.75,60 80,37.5 91.25,60 Z M 82.5,80 H 55 V 33.945312 C 58.673437,32.3375 61.43125,29.026562 62.248437,25 H 82.5 c 1.38125,0 2.5,-1.11875 2.5,-2.5 v -5 C 85,16.11875 83.88125,15 82.5,15 H 59.94375 C 57.6625,11.98125 54.076562,10 50,10 c -4.076562,0 -7.6625,1.98125 -9.94375,5 H 17.5 C 16.11875,15 15,16.11875 15,17.5 v 5 c 0,1.38125 1.11875,2.5 2.5,2.5 H 37.751563 C 38.56875,29.025 41.325,32.3375 45,33.945312 V 80 H 17.5 C 16.11875,80 15,81.11875 15,82.5 v 5 c 0,1.38125 1.11875,2.5 2.5,2.5 h 65 c 1.38125,0 2.5,-1.11875 2.5,-2.5 v -5 C 85,81.11875 83.88125,80 82.5,80 Z" style="stroke-width:.15625"/></svg>