<svg xmlns="http://www.w3.org/2000/svg" xmlns:svg="http://www.w3.org/2000/svg" id="svg835" width="100" height="100" fill="currentColor" version="1.1" viewBox="0 0 24 24"><metadata id="metadata841"/><path d="m 10.169326,13.830674 c 0.532324,0.506356 0.532324,1.3373 0,1.843657 -0.5063561,0.506356 -1.3373001,0.506356 -1.8436571,0 -2.5317821,-2.531783 -2.5317821,-6.6475531 0,-9.1793352 v 0 l 4.5961601,-4.596159 c 2.531782,-2.53178254 6.647552,-2.53178254 9.179334,0 2.531783,2.5317825 2.531783,6.6475521 0,9.1793342 l -1.934541,1.934542 c 0.01298,-1.064647 -0.155802,-2.129294 -0.51934,-3.1420071 l 0.610224,-0.623208 c 1.532053,-1.51907 1.532053,-3.9859346 0,-5.5050041 -1.519069,-1.532053 -3.985934,-1.532053 -5.505004,0 l -4.583176,4.5831751 c -1.5320531,1.51907 -1.5320531,3.9859351 0,5.5050051 m 3.661348,-5.5050051 c 0.506356,-0.506356 1.3373,-0.506356 1.843657,0 2.531782,2.5317831 2.531782,6.6475531 0,9.1793351 v 0 l -4.59616,4.596159 c -2.5317821,2.531783 -6.6475517,2.531783 -9.1793342,0 -2.53178254,-2.531782 -2.53178254,-6.647552 0,-9.179334 l 1.9345415,-1.934542 c -0.012983,1.064647 0.155802,2.129294 0.51934,3.154991 l -0.6102245,0.610224 c -1.532053,1.51907 -1.532053,3.985935 0,5.505004 1.5190695,1.532053 3.9859341,1.532053 5.5050041,0 l 4.5831761,-4.583175 c 1.532053,-1.51907 1.532053,-3.985935 0,-5.505005 -0.532324,-0.5063561 -0.532324,-1.3373001 0,-1.8436571 z"/></svg>