<svg xmlns="http://www.w3.org/2000/svg" xmlns:svg="http://www.w3.org/2000/svg" id="svg835" width="100" height="100" fill="currentColor" version="1.1" viewBox="0 0 100 100"><!--! Font Awesome Free 5.15.2 by @fontawesome - https://fontawesome.com License - https://fontawesome.com/license/free (Icons: CC BY 4.0, Fonts: SIL OFL 1.1, Code: MIT License)--><metadata id="metadata841"/><path id="path833" fill="currentColor" d="m 58.59375,81.25 h 4.6875 A 2.34375,2.34375 0 0 0 65.625,78.90625 V 36.71875 A 2.34375,2.34375 0 0 0 63.28125,34.375 h -4.6875 A 2.34375,2.34375 0 0 0 56.25,36.71875 v 42.1875 A 2.34375,2.34375 0 0 0 58.59375,81.25 Z M 90.625,15.625 H 74.529296 L 67.888671,4.550782 A 9.3749999,9.3749999 0 0 0 59.845703,8.4143608e-7 H 40.154297 A 9.3749999,9.3749999 0 0 0 32.115234,4.550782 L 25.470703,15.625 H 9.3750005 a 3.125,3.125 0 0 0 -3.125,3.125 v 3.125 a 3.125,3.125 0 0 0 3.125,3.125 H 12.5 V 90.625 A 9.3749999,9.3749999 0 0 0 21.875,100 h 56.25 A 9.3749999,9.3749999 0 0 0 87.5,90.625 V 25 h 3.125 A 3.125,3.125 0 0 0 93.75,21.875 V 18.75 A 3.125,3.125 0 0 0 90.625,15.625 Z M 39.8125,9.9433601 a 1.171875,1.171875 0 0 1 1.007812,-0.5683594 h 18.359375 a 1.171875,1.171875 0 0 1 1.005859,0.5683594 L 63.595703,15.625 H 36.404297 Z M 78.125,90.625 H 21.875 V 25 h 56.25 z M 36.71875,81.25 h 4.6875 A 2.34375,2.34375 0 0 0 43.75,78.90625 V 36.71875 A 2.34375,2.34375 0 0 0 41.40625,34.375 h -4.6875 A 2.34375,2.34375 0 0 0 34.375,36.71875 v 42.1875 A 2.34375,2.34375 0 0 0 36.71875,81.25 Z" style="stroke-width:.195312"/></svg>