<svg xmlns="http://www.w3.org/2000/svg" xmlns:svg="http://www.w3.org/2000/svg" id="svg835" width="100" height="100" fill="currentColor" version="1.1" viewBox="0 0 100 100"><!--! Font Awesome Free 5.15.2 by @fontawesome - https://fontawesome.com License - https://fontawesome.com/license/free (Icons: CC BY 4.0, Fonts: SIL OFL 1.1, Code: MIT License)--><metadata id="metadata841"/><path id="path833" d="m 50.001953,0 c -10.355502,0 -18.75,8.3944982 -18.75,18.75 0,2.203132 0.449217,4.287103 1.148438,6.25 H 20.632812 c -2.818369,0 -5.28906,2.058584 -6.029296,5.023438 L 0.3359375,87.082031 C -1.2910208,93.587911 3.1991989,100 9.3808594,100 H 90.621094 c 6.179707,0 10.669916,-6.412089 9.042968,-12.917969 L 85.400391,30.023438 C 84.658201,27.056632 82.189462,25 79.371094,25 H 67.603516 c 0.697268,-1.962897 1.148437,-4.046868 1.148437,-6.25 0,-10.3555018 -8.394498,-18.75 -18.75,-18.75 z M 50,12.498047 c 3.445323,0 6.25,2.804677 6.25,6.25 0,3.445324 -2.804677,6.25 -6.25,6.25 -3.445324,0 -6.25,-2.804676 -6.25,-6.25 0,-3.445323 2.804676,-6.25 6.25,-6.25 z M 23.908,34.792969 H 76.318359 L 90.011,89.602 H 10.279 Z" style="stroke-width:.195313"/></svg>